<?xml version="1.0" encoding="utf-8" ?><svg xmlns="http://www.w3.org/2000/svg" xmlns:xlink="http://www.w3.org/1999/xlink" width="1344" height="768" viewBox="0 0 1344 768"><path fill="#185216" d="M180.437 305.888C203.331 309.738 212.435 321.079 225.684 338.435C245.195 339.817 262.666 348.663 278.388 359.487C302.626 376.173 294.481 388.696 271.315 398.996C255.472 406.04 240.59 407.675 223.588 409.75C208.977 423.069 200.573 426.861 181.219 429.582C183.99 419.191 186.451 414.765 196.506 410.307C185.58 407.257 176.532 404.617 165.672 401.082C153.716 412.086 145.319 415.241 129.311 417.373C132.307 406.732 150.439 377.742 124.18 384.732C119.978 387.422 110.642 396.211 106.381 399.768C89.6705 413.718 76.4022 419.65 55.8549 425.261C66.8572 411.657 92.1278 386.313 97.5051 370.673C92.416 351.44 67.3135 332.724 55.4866 315.913C82.9302 322.859 91.3933 328.228 112.652 347.646C116.739 351.38 125.527 359.325 129.921 362.137C143.283 358.722 166.621 345.288 181.251 338.731C185.918 324.252 185.784 319.769 180.437 305.888Z"/><path fill="#185216" d="M1156.04 306.664C1157.67 306.464 1157.67 306.481 1159.31 306.73C1159.42 308.023 1158.26 311.678 1157.82 313.155C1154.88 322.986 1156.46 329.732 1160.21 338.988C1173.71 344.901 1200.38 360.809 1211.77 362.332C1216.52 359.502 1225.65 351.351 1230.16 347.493C1250.62 330.022 1262.57 322.64 1288.02 315.403C1274.86 328.288 1261.29 345.108 1249.69 359.514C1245.63 364.554 1244.35 373.464 1248.22 379.123C1259.41 395.459 1273.72 410.22 1286.54 425.491C1258.32 419.004 1243.21 405.082 1221.61 386.674C1217.86 384.186 1206.23 380.545 1203.93 385.258C1199.3 394.724 1210.55 407.825 1212.84 417.821C1194.91 415.045 1188.54 411.998 1174.85 400.311L1145.74 410.517C1154.22 415.913 1156.78 419.055 1159.49 428.764C1136.65 428.185 1133.32 418.441 1114.97 409.656C1112.63 408.539 1102.47 407.461 1099.19 407.027C1085.58 405.224 1072.49 402.407 1060.81 394.821C1041.56 382.872 1044.42 372.147 1061.59 360.288C1079.7 347.06 1094.32 342.284 1115.68 337.67C1127.89 322.15 1136.25 311.83 1156.04 306.664Z"/><path fill="#185216" d="M969.42 361.8C972.902 356.164 976.711 350.12 980.121 344.496C995.609 318.95 1000.39 308.956 1032.64 309.058C1029.58 328.865 1025.86 347.698 1022.31 368.606C1020.16 381.255 1017.13 413.142 1009.73 424.704C1007.9 427.564 991.198 426.825 986.18 426.767L983.453 426.506C982.62 425.035 988.816 385.941 989.428 381.172C982.816 390.534 975.916 408.479 964.417 411.853C951.733 415.575 947.22 390.115 945.357 382.209C937.986 418.603 949.232 428.259 907.384 427.268C908.035 424.373 908.54 421.295 909.041 418.363C915.24 382.093 918.035 345.279 925.39 309.186C963.355 308.274 958.574 334.532 969.42 361.8Z"/><path fill="#185216" d="M551.581 309.175C563.012 308.903 575.332 309.18 586.828 309.238C579.61 323.073 578.344 334.362 577.279 349.941C585.105 349.809 593.366 349.935 601.225 349.944C603.124 336.39 604.675 322.789 605.877 309.156C617.588 308.999 629.716 309.187 641.46 309.211C633.466 321.739 633.454 336.189 631.748 350.517L626.123 395.933C625.13 403.933 624.221 414.628 621.192 421.891C619.055 424.427 617.766 425.214 615.04 427.142C607.962 427.487 598.459 427.26 591.196 427.278C592.305 413.307 595.228 396.526 596.774 382.063C589.14 381.983 581.331 382.063 573.683 382.066C568.844 416.805 577.233 428.279 537.398 427.211C537.541 422.98 537.968 417.957 538.559 413.755C543.45 379.004 546.123 343.823 551.581 309.175Z"/><path fill="#185216" d="M866.578 309.295C868.153 309.227 869.729 309.196 871.306 309.202C879.403 309.265 886.527 313.294 892.239 319.044C911.354 338.286 904.415 365.421 901.552 389.132C900.194 400.381 898.986 415.989 892.078 424.89C889.621 428.055 868.615 426.796 864.288 426.641C866.198 416.464 867.593 406.034 869.082 395.777L857.619 395.739L848.681 395.794C845.847 427.658 845.229 427.257 813.465 426.932C821.239 385.624 818.11 325.323 866.578 309.295ZM854.829 366.451L863.7 366.397L873.208 366.412C872.631 362.053 871.415 347.946 868.256 344.791C868.022 344.558 866.388 343.965 865.932 343.815C862.296 351.149 858.186 359.047 854.829 366.451Z"/><path fill="#185216" d="M493.968 309.349C508.526 308.388 528.545 309.053 543.423 309.141C537.621 320.435 529.738 332.829 523.33 344.2C512.987 343.947 502.64 343.999 492.3 344.358L486.686 350.566C498.179 350.559 509.67 349.038 520.296 354.086C537.572 362.293 537.993 381.513 530.276 396.857C523.229 410.869 511.398 420.408 496.634 425.374C484.639 428.197 458.763 427.376 445.394 427.324C446.34 374.857 466.139 400.278 496.918 390.593C498.164 389.384 500.162 386.797 501.326 385.363C490.173 385.545 478.176 386.396 468.092 380.637C451.289 371.042 451.706 349.141 460.708 334.128C468.66 320.867 478.797 313.285 493.968 309.349Z"/><path fill="#185216" d="M368.52 309.396C381.01 308.4 402.096 309.133 415.115 309.213C407.245 320.699 399.966 332.401 392.173 343.83C378.865 343.735 367.331 341.191 356.744 350.961C369.084 351.37 382.29 351.208 394.695 351.265C387.134 386.834 390.18 382.648 353.735 381.968C351.438 383.376 348.921 389.821 348.574 392.5C344.164 426.543 350.458 426.429 314.345 426.814C315.345 412.355 316.696 397.922 318.397 383.529C319.371 374.719 320.375 363.282 322.554 354.855C324.051 348.994 326.365 343.372 329.428 338.156C338.326 323.032 351.678 313.746 368.52 309.396Z"/><path fill="#185216" d="M791.797 310.077C798.031 309.035 818.644 309.562 825.455 309.635C818.534 321.333 811.991 332.425 805.868 344.557C792.959 344.411 778.519 342.232 769.244 353.026C764.655 358.373 762.422 365.349 763.055 372.368C763.539 378.139 766.338 383.469 770.815 387.143C780.379 395.008 794.744 393.646 806.272 392.412C804.72 401.666 802.899 410.872 800.811 420.019C798.514 424.604 793.971 427.841 788.803 427.971C759.038 428.721 735.113 412.701 731.92 381.993C730.175 363.988 735.636 346.026 747.108 332.042C759.859 316.5 772.543 312.01 791.797 310.077Z"/><path fill="#185216" d="M418.231 309.16C428.445 308.806 443.393 308.9 453.444 309.287C446.079 324.717 445.716 341.193 443.744 358.09L439.176 396.063C438.123 404.659 437.419 413.71 434.622 421.894C427.03 429.62 414.318 427.548 404.195 427.262C407.927 398.836 410.95 370.4 414.468 341.956C415.828 330.965 417.238 320.213 418.231 309.16Z"/><path fill="#185216" d="M666.457 368.213L702.46 368.348C701.897 374.193 700.81 381.041 700.027 386.94C688.084 386.594 675.367 386.747 663.4 386.809C664.631 381.127 665.551 374.055 666.457 368.213Z"/><path fill="#911A18" d="M420.128 446.014C426.464 444.672 432.71 448.638 434.191 454.944C435.672 461.25 431.844 467.584 425.575 469.204C421.394 470.284 416.956 469.016 413.976 465.891C410.996 462.765 409.941 458.271 411.218 454.145C412.495 450.02 415.904 446.908 420.128 446.014ZM424.929 464.276C427.388 463.494 429.215 461.42 429.681 458.881C430.146 456.343 429.174 453.755 427.153 452.151C425.132 450.547 422.391 450.189 420.026 451.22C416.619 452.704 414.972 456.598 416.279 460.077C417.586 463.557 421.388 465.402 424.929 464.276Z"/><path fill="#911A18" d="M508.089 445.995C514.46 445.032 520.436 449.328 521.554 455.676C522.672 462.024 518.522 468.104 512.205 469.375C507.98 470.226 503.626 468.719 500.83 465.439C498.034 462.158 497.235 457.62 498.743 453.582C500.25 449.543 503.827 446.64 508.089 445.995ZM511.533 464.317C514.055 463.664 515.999 461.652 516.566 459.108C517.133 456.564 516.227 453.917 514.221 452.254C512.215 450.591 509.447 450.191 507.053 451.22C503.72 452.653 502.052 456.411 503.226 459.845C504.401 463.278 508.021 465.227 511.533 464.317Z"/><path fill="#911A18" d="M827.885 446.351C833.051 446.239 839.403 445.779 844.08 448.22C849.774 451.192 844.459 457.046 842.083 460.313C842.15 464.29 847.588 464.741 845.051 469.177C836.453 467.966 841.154 462.633 835.311 461.718C832.305 463.784 832.509 467.378 829.445 469.658C827.885 467.937 827.991 449.937 827.885 446.351Z"/><path fill="#911A18" d="M605.567 446.436C610.671 446.266 619.57 445.633 623.083 449.881C626.413 453.909 621.636 458.503 618.812 460.653C621.23 463.696 625.044 466.696 621.705 469.721C616.237 467.635 616.24 461.347 611.009 461.015C609.206 463.829 611.305 464.871 609.749 468.331C607.927 469.093 608.737 469.022 606.661 468.366C605.079 466.06 605.606 450.561 605.567 446.436Z"/><path fill="#911A18" d="M736.905 446.516C746.34 446.094 764.002 448.003 750.416 460.745C752.116 463.458 754.802 465.436 753.77 468.541L750.669 469.578C748.276 466.931 746.032 459.179 741.768 461.445C741.302 463.612 741.378 465.133 741.366 467.324C740.241 468.911 740.868 468.421 738.778 468.987L737.782 468.226C736.367 464.744 736.78 451.041 736.905 446.516ZM749.888 456.206C750.027 453.211 750.348 454.174 749.129 451.907C747.159 450.531 743.985 450.692 741.472 450.573C741.449 453.093 741.073 455.169 742.498 457.076C745.192 457.862 747.036 457.119 749.888 456.206Z"/><path fill="#911A18" d="M875.368 445.876C882.112 446.554 885.808 453.36 890.438 458.943C890.416 455.041 889.632 449.002 892.611 446.266C896.753 449.409 896.957 465.932 894.675 469.355C888.836 467.805 883.697 459.305 880.026 454.255C880.176 458.066 880.98 464.976 879.025 468.003C877.108 468.833 877.925 468.813 876.084 468.142C874.633 464.726 875.283 450.356 875.368 445.876Z"/><path fill="#911A18" d="M569.812 459.269C569.754 454.173 569.347 450.823 571.359 446.1L572.315 445.758C575.549 448.381 576.596 466.106 574.673 469.314C568.437 468.288 564.417 460.149 559.882 454.361C559.927 457.804 560.334 465.684 558.965 468.402C556.749 468.755 557.485 468.938 555.599 468.152C554.19 464.466 555.063 450.744 555.229 446.069C555.62 446.096 556.01 446.131 556.399 446.176C561.641 446.82 566.496 454.863 569.812 459.269Z"/><path fill="#911A18" d="M527.796 446.042C535.368 446.411 539.274 454.397 543.432 460.236C543.286 456.434 542.444 449.877 544.536 446.967C546.47 446.319 545.734 446.261 547.452 446.883C548.761 451.61 548.032 463.998 547.849 469.476C540.595 467.315 537.956 460.848 532.868 454.932C532.922 458.469 533.42 465.513 532.071 468.333C530.618 468.895 530.445 468.759 528.851 468.41C527.223 463.352 527.725 451.87 527.796 446.042Z"/><path fill="#911A18" d="M388.508 446.315C394.517 446.074 401.666 445.389 406.078 450.94C409.447 455.178 403.98 459.805 400.672 462.162C398.341 462.412 396.721 462.636 394.415 463.092C393.529 465.475 392.745 468.3 390.79 469.749L389.838 469.291C387.972 466.221 388.524 450.868 388.508 446.315Z"/><path fill="#911A18" d="M769.747 439.57L773.345 440.667C773.706 442.625 772.379 442.765 770.712 445.405C771.641 446.751 775.194 446.94 777.442 447.464L777.916 448.499C774.346 453.274 772.052 449.523 766.133 451.134C764.866 453.212 765.018 452.35 765.213 454.455C767.821 456.805 773.168 454.645 776.193 456.741L776.139 458.14C772.887 461.713 767.967 458.529 765.504 460.185L765.471 463.88C768.671 465.833 772.398 462.752 778.527 466.272L778.342 467.113C773.875 469.33 765.783 468.697 760.631 468.667L760.538 446.934C762.878 446.837 764.32 446.747 766.662 446.402C768.622 444.641 768.68 442.567 769.747 439.57Z"/><path fill="#911A18" d="M705.641 446.257L708.696 446.529C712.212 449.055 718.84 464.025 716.974 468.529C715.124 468.789 715.839 468.833 713.936 467.742C713.091 466.02 712.608 464.969 711.155 463.629C701.543 463.006 702.246 468.316 697.412 468.277C696.95 464.267 703.78 450.305 705.641 446.257Z"/><path fill="#911A18" d="M582.282 446.478C585.934 446.38 597.487 445.375 599.533 448.558C596.082 450.848 589.116 450.351 587.12 452.995C588.177 458.287 593.303 453.523 597.014 456.357C597.403 458.272 597.589 457.437 596.59 458.972C594.086 460.077 589.9 459.629 587.02 459.539C588.721 469.978 592.924 461.584 599.415 465.269L599.769 467.011L598.827 468.117C596.135 469.098 586.037 468.637 582.584 468.59C582.258 460.94 582.228 454.104 582.282 446.478Z"/><path fill="#911A18" d="M852.493 446.456C856.651 446.354 867.9 445.002 869.815 448.834C867.647 450.817 861.426 449.425 857.911 452.201C857.206 454.003 857.163 453.337 857.708 454.898C861.532 456.786 866.499 453.797 868.388 457.526L867.842 458.762C865.869 459.979 861.047 459.535 858.446 459.506C857.242 460.46 857.049 461.468 857.15 462.837C859.617 465.978 865.919 463.578 869.993 466.055L869.858 467.189C867.254 469.45 856.763 468.672 852.517 468.662L852.493 446.456Z"/><path fill="#911A18" d="M642.487 446.446C645.756 446.446 656.354 446.108 658.732 447.139L659.143 448.992C657.061 452.197 652.066 449.917 647.83 451.301C647.327 453.701 647.224 452.798 647.946 454.9C650.405 456.294 653.47 455.386 657.163 456.263C657.791 457.89 657.739 457.179 657.017 459.094C655.202 459.958 650.429 459.811 648.167 459.866L647.683 460.233L647.586 463.254C649.556 465.836 655.352 463.855 659.612 465.861L659.881 466.88L658.572 468.321C653.987 468.918 647.399 468.709 642.615 468.689C642.349 461.638 642.512 453.575 642.487 446.446Z"/><path fill="#911A18" d="M927.775 446.357C931.669 446.234 942.577 445.104 944.961 448.344C941.181 453.532 932.876 447.337 932.434 454.09C935.499 455.145 940.439 456.09 942.818 457.805L942.556 458.604C939.37 459.892 936.328 459.766 932.907 459.874C932.637 460.843 932.862 461.709 932.973 462.772C935.517 465.321 940.289 464.028 944.878 466.296L944.513 467.205C940.564 469.51 932.607 468.765 927.847 468.677L927.775 446.357Z"/><path fill="#911A18" d="M479.506 446.399C483.279 446.311 487.946 445.762 490.95 448.019C491.456 449.792 491.512 448.929 490.623 450.679C486.963 452.547 483.458 448.797 480.721 451.873C481.07 454.693 490.708 456.133 493.288 462.476C493.166 466.999 489.456 468.237 485.576 469.397C482.166 469.339 475.3 468.484 474.839 464.36C477.62 460.937 481.922 466.385 487.138 463.571C486.224 458.857 466.597 456.933 479.506 446.399Z"/><path fill="#911A18" d="M805.543 446.588C809.98 446.489 820.435 444.907 822.176 449.037C819.567 452.477 813.549 448.873 810.08 451.439C809.13 456.022 816.676 456.695 820.383 457.678L820.286 458.831C816.416 460.058 814.66 459.749 810.671 459.593C810.4 461.529 810.042 462.597 810.8 464.375C814.247 465.757 817.591 463.934 821.62 465.027C822.607 466.367 822.394 465.712 822.178 467.633C819.753 469.479 809.036 468.636 805.233 468.553C805.215 461.291 805.086 453.818 805.543 446.588Z"/><path fill="#911A18" d="M457.708 446.434C461.428 446.237 465.953 445.858 468.845 448.296C469.315 450.086 469.381 449.317 468.368 451.171C465.098 452.467 463.126 450.093 459.252 450.879L458.48 452.084C460.269 455.168 468.165 456.42 470.622 462.079C470.456 466.764 466.681 468.166 462.603 469.435C457.078 468.691 456.492 468.787 452.263 465.247L452.318 464.256C455.056 463.314 460.782 463.826 463.912 463.938L464.691 462.938C461.636 458.308 444.337 455.783 457.708 446.434Z"/><path fill="#911A18" d="M909.626 446.328C912.874 446.157 919.849 446.042 921.717 449.205C918.202 454.22 911.883 448.575 906.934 453.375C906.413 454.469 906.122 455.256 906.306 456.496C907.631 465.437 912.791 464.848 919.908 463.391L921.734 465.056L921.739 466.166C918.952 468.859 914.592 470.102 910.809 469.204C907.623 468.434 904.877 466.423 903.18 463.617C898.562 455.97 902.907 450.222 909.626 446.328Z"/><path fill="#911A18" d="M783.56 446.429C788.837 446.434 796.357 445.16 800.228 448.351C799.996 452.952 791.547 448.403 787.435 452.798L787.531 454.048C790.4 458.405 795.016 454.713 799.771 457.424C796.157 461.754 794.053 460.769 788.706 460.696C788.787 463.117 789.133 466.681 787.694 468.529C785.901 468.841 786.643 468.944 784.938 467.968C782.414 463.911 783.514 451.915 783.56 446.429Z"/><path fill="#911A18" d="M677.113 446.373C678.754 446.371 679.113 446.404 680.705 446.794C683.067 449.743 682.134 460.083 682.161 464.589C688.067 464.189 690.108 463.089 693.464 468.259C690.396 468.985 680.893 468.729 677.225 468.71L677.113 446.373Z"/><path fill="#911A18" d="M441.786 445.931C443.577 446.067 443.938 445.948 445.238 447.036C447.559 452.823 446.119 463.702 445.085 469.868C443.678 469.612 443.61 469.508 442.383 468.876C440.355 464.766 440.957 450.523 441.786 445.931Z"/><path fill="#911A18" d="M630.648 446.24C632.514 446.282 632.922 446.14 634.395 447.128C636.176 450.813 635.276 463.979 635.24 468.913C633.449 468.822 633.009 468.936 631.528 468.052C629.582 464.155 630.587 451.387 630.648 446.24Z"/></svg>